<?xml version="1.0" encoding="iso-8859-1"?>
<!-- Generator: Adobe Illustrator 16.0.0, SVG Export Plug-In . SVG Version: 6.00 Build 0)  -->
<!DOCTYPE svg PUBLIC "-//W3C//DTD SVG 1.1//EN" "http://www.w3.org/Graphics/SVG/1.1/DTD/svg11.dtd">
<svg version="1.1" id="Capa_1" xmlns="http://www.w3.org/2000/svg" xmlns:xlink="http://www.w3.org/1999/xlink" x="0px" y="0px"
	 width="427.259px" height="427.259px" viewBox="0 0 427.259 427.259" style="enable-background:new 0 0 427.259 427.259;"
	 xml:space="preserve">
<g>
	<path d="M149.647,190.519h105.062v105.063H149.647V190.519z M352.766,88.259v324.992c0,7.737-6.271,14.008-14.008,14.008H64.195
		c-7.737,0-14.008-6.271-14.008-14.008V88.259c0-0.314,0.066-0.604,0.085-0.914l0.756-70.679c0.084-7.538,6.112-13.66,13.649-13.852
		l108.431-2.803c5.792-0.24,11.346,3.471,13.459,9.032l16.754,44.184l82.934-12.441c3.479-0.514,6.957,0.271,9.856,2.197
		l50.428,33.62C350.424,79.202,352.766,83.58,352.766,88.259z M78.45,71.958l96.518-14.479l-11.077-29.204l-84.992,2.197
		L78.45,71.958z M282.725,303.791V183.712l42.124-42.126c5.477-5.47,5.477-14.339,0-19.809c-5.473-5.475-14.338-5.475-19.81,0
		l-40.721,40.726H138.637l-40.726-40.726c-5.475-5.475-14.339-5.475-19.809,0c-5.475,5.469-5.475,14.339,0,19.809l43.527,43.526
		v117.278l-43.527,43.527c-5.475,5.467-5.475,14.337,0,19.81c2.733,2.73,6.321,4.1,9.907,4.1c3.586,0,7.165-1.369,9.908-4.1
		l42.125-42.129h122.88l42.13,42.129c2.736,2.73,6.313,4.1,9.903,4.1c3.591,0,7.168-1.369,9.903-4.1
		c5.478-5.473,5.478-14.343,0-19.81L282.725,303.791z M370.408,29.697L326.273,2.518c-3.159-1.951-6.993-2.566-10.585-1.699
		c-3.622,0.856-6.741,3.122-8.689,6.287l-8.81,14.31c-4.053,6.591-2.003,15.215,4.585,19.27l44.132,27.177
		c2.228,1.374,4.777,2.079,7.35,2.079c1.079,0,2.167-0.123,3.233-0.38c3.617-0.859,6.741-3.122,8.697-6.287l8.802-14.312
		C379.044,42.384,376.999,33.755,370.408,29.697z"/>
</g>
<g>
</g>
<g>
</g>
<g>
</g>
<g>
</g>
<g>
</g>
<g>
</g>
<g>
</g>
<g>
</g>
<g>
</g>
<g>
</g>
<g>
</g>
<g>
</g>
<g>
</g>
<g>
</g>
<g>
</g>
</svg>
