<?xml version="1.0" encoding="iso-8859-1"?>
<!-- Generator: Adobe Illustrator 18.1.1, SVG Export Plug-In . SVG Version: 6.00 Build 0)  -->
<svg version="1.1" id="Capa_1" xmlns="http://www.w3.org/2000/svg" xmlns:xlink="http://www.w3.org/1999/xlink" x="0px" y="0px"
	 viewBox="0 0 40.321 40.321" style="enable-background:new 0 0 40.321 40.321;" xml:space="preserve">
<g>
	<g id="b83_food">
		<path d="M23.62,10.435c0.986-0.465,2.063-1.16,3.108-2.043c2.776-2.35,4.28-5.135,3.36-6.225c-0.922-1.09-3.92-0.068-6.695,2.281
			C22.645,5.081,22,5.745,21.459,6.397c-0.365-0.764-0.83-1.561-1.402-2.354c-2.124-2.946-4.784-4.665-5.942-3.833
			c-1.157,0.834-0.371,3.904,1.754,6.852c0.807,1.123,1.689,2.059,2.538,2.754c-6.73,1.656-11.933,12.488-11.933,20.306
			c0,8.486,6.126,10.199,13.686,10.199c7.559,0,13.686-1.713,13.686-10.199C33.845,22.979,29.503,13.315,23.62,10.435z"/>
	</g>
	<g id="Capa_1_197_">
	</g>
</g>
<g>
</g>
<g>
</g>
<g>
</g>
<g>
</g>
<g>
</g>
<g>
</g>
<g>
</g>
<g>
</g>
<g>
</g>
<g>
</g>
<g>
</g>
<g>
</g>
<g>
</g>
<g>
</g>
<g>
</g>
</svg>
